#tb 0: 1/1000
0,          0,          0,        0,   152064, f4e04a0f92fab3a52d858bb222807ac0
0,         33,         33,        0,   152064, 493cb96b8202a1518c6c9bdb848540e4
0,         66,         66,        0,   152064, 60b5b63f832cff119a43de82102758f4
0,        100,        100,        0,   152064, 0d9bd42e279d480603f9c670f0a8ffe3
0,        133,        133,        0,   152064, 25ca563f233688f32f40fec985a116a2
0,        166,        166,        0,   152064, dd14b43d538708a91de41606703dbe1c
0,        200,        200,        0,   152064, 01bb23cb43960ff185a97ea79936d3b4
0,        233,        233,        0,   152064, 85045c4310ee80cd12979bdea4f3f86e
0,        266,        266,        0,   152064, c8e015ea13359a05483de349313a6686
0,        300,        300,        0,   152064, 8dbb0406bf6fe19c30a9c9253fcdfe7f
0,        333,        333,        0,   152064, 84881463643069036d03e8120a5f15e9
0,        367,        367,        0,   152064, 9abcd3f2f86ff31f8d357389b330df59
0,        400,        400,        0,   152064, 19ada6395c4e656578d2ceeaba291bb2
0,        433,        433,        0,   152064, fc29773a6f32eed2bfa44143f8f505b1
0,        467,        467,        0,   152064, 5e56bd91f5e3d1457c124b5702bdc3b6
0,        500,        500,        0,   152064, 5b920d73e301adb6c45699a209f09a33
0,        533,        533,        0,   152064, 4d06ec294270638c6abdd1c2303b34fc
0,        567,        567,        0,   152064, dc99797067851f74708d7e6ff54367d8
0,        600,        600,        0,   152064, 5df68b49124219592b043916affb1311
0,        633,        633,        0,   152064, cfb52d101fad76acb1bb0d48c513bffd
0,        667,        667,        0,   152064, 206dbd55680b8a83d8bafe33c54c3e36
0,        700,        700,        0,   152064, 171f2e26771db631788065eecf6c44d9
0,        734,        734,        0,   152064, b10809dcf9ecfdb4f86a6f3236ac273e
0,        767,        767,        0,   152064, b354107bdea9bd011b09d9f4a32d4e89
0,        800,        800,        0,   152064, 0c18be13dc6fbf79a613f2b24bb301c1
